<svg width="405" height="300" viewBox="0 0 405 300" fill="none" xmlns="http://www.w3.org/2000/svg">
<path d="M134.642 46.5255H260.851L270.315 0H144.105L134.642 46.5255Z" fill="#010025"/>
<path d="M204.856 16.9119L208.63 26.652L212.38 16.9119H214.896L208.418 33.7351H205.908L207.701 29.3559H207.142L202.364 16.9119H204.856Z" fill="white"/>
<path d="M214.86 25.1352V21.1498C214.86 18.2166 216.43 16.7471 219.569 16.7471H221.714C224.853 16.7471 226.423 18.2166 226.423 21.1498V25.1352C226.423 28.0566 224.853 29.5144 221.714 29.5144H219.569C216.43 29.5144 214.86 28.0566 214.86 25.1352ZM223.971 25.0176V21.2438C223.971 20.4209 223.772 19.8096 223.378 19.404C222.984 18.9984 222.349 18.7985 221.479 18.7985H219.804C218.934 18.7985 218.299 18.9984 217.905 19.404C217.511 19.8096 217.312 20.4209 217.312 21.2438V25.0176C217.312 25.8405 217.511 26.4519 217.905 26.8575C218.299 27.263 218.934 27.4629 219.804 27.4629H221.479C222.349 27.4629 222.984 27.263 223.378 26.8575C223.772 26.4519 223.971 25.8405 223.971 25.0176Z" fill="white"/>
<path d="M230.062 16.9116V24.9941C230.062 26.6106 230.89 27.4159 232.554 27.4159H233.418C234.353 27.4159 235.228 27.363 236.051 27.2513V16.9058H238.497V28.9501C236.757 29.3204 234.934 29.5085 233.024 29.5085H232.207C230.685 29.5085 229.538 29.1382 228.774 28.4034C228.004 27.6686 227.622 26.5989 227.622 25.1999V16.9058H230.067L230.062 16.9116Z" fill="white"/>
<path d="M176.312 33.4997H166.46V11.821H176.094C178.134 11.821 179.68 12.2854 180.744 13.2083C181.802 14.137 182.337 15.442 182.337 17.129V18.334C182.337 19.2628 182.125 20.0681 181.702 20.7558C181.279 21.4435 180.709 21.9373 179.986 22.2253C181.737 22.8249 182.613 24.2415 182.613 26.487V28.1564C182.613 29.8434 182.084 31.1601 181.02 32.0948C179.962 33.0294 178.387 33.4997 176.312 33.4997ZM169.858 20.8969H175.847C176.817 20.8969 177.576 20.6677 178.134 20.2033C178.692 19.7389 178.969 19.0747 178.969 18.2106V17.4053C178.969 16.5177 178.692 15.8534 178.134 15.4008C177.576 14.9482 176.817 14.719 175.847 14.719H169.858V20.8969ZM176.065 23.7125H169.858V30.6311H176.065C177.035 30.6311 177.799 30.396 178.363 29.9198C178.928 29.4496 179.216 28.7677 179.216 27.8801V26.4576C179.216 25.57 178.933 24.894 178.363 24.4179C177.799 23.9418 177.029 23.7066 176.065 23.7066" fill="white"/>
<path d="M194.675 33.0706V28.8148H190.425V25.382H194.675V21.1321H198.108V25.382H202.364V28.8148H198.108V33.0706H194.675Z" fill="#00F4CA"/>
<path d="M184.041 28.8149V25.3115V24.7237V23.2072L198.114 9.86377V14.5957L187.474 24.6826V28.8149H184.041Z" fill="#00F4CA"/>
<path d="M165.981 61.6777L149.669 143.237V120.489C149.669 112.447 147.489 108.315 142.204 106.475V105.329C147.371 103.836 149.669 99.5859 149.669 91.3153V82.4687C149.669 67.7674 143.468 61.6777 128.42 61.6777H107.746V143.237L91.4346 61.6777H74.6642L58.2583 143.707L57.5471 61.6777H37.9082L32.9705 92.1147C31.1307 103.601 30.2137 114.399 29.8669 128.982L29.7493 134.608H28.6031L28.4855 128.982C28.1387 114.393 27.2217 103.601 25.3818 92.1147L20.4442 61.6777H0.805303L0 154.717H17.2288L17.4581 134.502C17.5757 127.148 16.6528 119.225 13.6667 99.8151L11.7151 87.2947H12.8614L24.3473 154.717H33.9933L45.4792 87.2947H46.6255L44.6739 99.8151C41.6878 119.113 40.7709 127.725 40.8825 134.502L41.1118 154.717H73.6179L77.1801 137.03H88.8952L92.4574 154.717H124.964V114.17H128.408C131.047 114.17 132.429 116.35 132.429 120.489V154.717H164.935L168.497 137.03H180.212L183.774 154.717H201.35L182.74 61.6777H165.969H165.981ZM80.4072 120.371C81.671 112.676 82.1295 102.913 82.3587 87.4063L82.4763 78.3305H83.6225L83.7401 87.4063C83.9693 103.025 84.4278 112.676 85.6916 120.371H80.4072ZM131.864 91.3094C131.864 95.1008 130.254 97.5109 127.732 97.5109H124.975V78.3305H128.42C131.059 78.3305 131.864 80.0528 131.864 85.2197V91.3094ZM171.724 120.371C172.988 112.676 173.446 102.913 173.676 87.4063L173.793 78.3305H174.94L175.051 87.4063C175.28 103.025 175.739 112.676 177.003 120.371H171.718H171.724Z" fill="white"/>
<path d="M191.169 78.3305H206.1V154.717H223.328V78.3305H238.265V61.6777H191.169V78.3305Z" fill="white"/>
<path d="M260.537 60.5256C245.26 60.5256 239.287 66.3861 239.287 81.3166V135.072C239.287 150.003 245.26 155.863 260.537 155.863C275.814 155.863 281.786 149.773 281.786 135.072V81.3166C281.786 66.6154 275.585 60.5256 260.537 60.5256ZM263.982 131.739C263.982 136.906 263.176 138.629 260.537 138.629C257.898 138.629 257.092 136.906 257.092 131.739V84.6436C257.092 79.4768 257.898 77.7545 260.537 77.7545C263.176 77.7545 263.982 79.4768 263.982 84.6436V131.739Z" fill="white"/>
<path d="M363.017 61.6777H346.246L329.793 143.936V61.6777H312.565V88.5526C312.565 96.1354 313.482 103.942 316.127 116.809L318.654 129.1H317.508L301.772 61.6777H285.231V154.717H302.46V127.842C302.46 119.113 301.543 112.682 298.898 99.5858L296.37 87.2947H297.517L313.252 154.717H345.212L348.774 137.03H360.489L364.051 154.717H381.627L363.017 61.6777ZM351.989 120.371C353.253 112.676 353.712 102.913 353.941 87.4063L354.058 78.3305H355.205L355.316 87.4063C355.546 103.025 356.004 112.676 357.268 120.371H351.983H351.989Z" fill="white"/>
<path d="M168.174 162.248L159.186 207.186C156.641 219.736 155.624 234.49 155.283 261.624L155.113 275.02H153.42L153.25 261.624C152.909 234.661 151.892 219.566 149.346 207.186L140.359 162.248H114.413L141.887 299.614H166.646L190.928 178.207V299.614H216.369V162.248H168.174Z" fill="#00F4CA"/>
<path d="M380.98 275.026V162.248H355.54V280.299L331.927 162.248H307.168L283.556 280.299V249.074C283.556 237.2 280.335 231.099 272.534 228.383V226.69C280.164 224.486 283.556 218.208 283.556 205.999V192.944C283.556 171.236 274.398 162.248 252.184 162.248H221.659V299.614H247.1V239.751H252.19C256.093 239.751 258.127 242.973 258.127 249.08V299.614H305.652L310.907 273.498H328.206L333.461 299.614H404.893V275.026H380.98ZM257.275 205.999C257.275 211.595 254.9 215.157 251.167 215.157H247.1V186.836H252.19C256.093 186.836 257.281 189.382 257.281 197.011V205.999H257.275ZM315.651 248.91C317.514 237.547 318.196 223.134 318.531 200.239L318.701 186.842H320.4L320.571 200.239C320.911 223.304 321.588 237.547 323.451 248.91H315.651Z" fill="#00F4CA"/>
<path d="M83.7459 299.614H60.2392L32.7765 162.248H56.2773L83.7459 299.614Z" fill="#00F4CA"/>
<path d="M51.4575 299.614H39.1016L11.6331 162.248H23.9948L51.4575 299.614Z" fill="#00F4CA"/>
<path d="M32.3945 299.614H27.4686L0 162.248H4.93174L32.3945 299.614Z" fill="#00F4CA"/>
<path d="M128.144 299.614H93.3451L65.8765 162.248H100.681L128.144 299.614Z" fill="#00F4CA"/>
</svg>
