<svg width="204" height="92" viewBox="0 0 204 92" fill="none" xmlns="http://www.w3.org/2000/svg">
<path d="M14.2838 17.0305H5.86326e-05V1.09866H45.0488V17.0305H30.7651V90.0974H14.2838V17.0305ZM63.719 68.1224C63.719 73.0668 64.4881 74.7149 67.0152 74.7149C69.5424 74.7149 70.3115 73.0668 70.3115 68.1224V23.0737C70.3115 18.1293 69.5424 16.4812 67.0152 16.4812C64.4881 16.4812 63.719 18.1293 63.719 23.0737V68.1224ZM46.6883 71.3088V19.8873C46.6883 5.60353 52.4018 -9.36538e-05 67.0152 -9.36538e-05C81.4089 -9.36538e-05 87.3421 5.82328 87.3421 19.8873V71.3088C87.3421 85.3728 81.4089 91.1962 67.0152 91.1962C52.4018 91.1962 46.6883 85.5925 46.6883 71.3088ZM90.5997 90.0974V1.09866H110.377C124.771 1.09866 130.704 6.92203 130.704 20.8762V33.7315C130.704 47.6857 124.771 53.509 110.377 53.509H107.081V90.0974H90.5997ZM110.377 17.0305H107.081V37.5772H110.377C112.904 37.5772 113.673 35.929 113.673 30.9847V23.623C113.673 18.6787 112.904 17.0305 110.377 17.0305Z" fill="white"/>
<path d="M143.838 17.0305H132.85V1.09866H160.319V90.0974H143.838V17.0305ZM162.465 71.3088V19.8873C162.465 5.60353 168.178 -9.36538e-05 182.792 -9.36538e-05C197.185 -9.36538e-05 203.119 5.82328 203.119 19.8873V71.3088C203.119 85.3728 197.185 91.1962 182.792 91.1962C168.178 91.1962 162.465 85.5925 162.465 71.3088ZM179.495 68.1224C179.495 73.0668 180.265 74.7149 182.792 74.7149C185.319 74.7149 186.088 73.0668 186.088 68.1224V50.4325L179.495 57.025V68.1224ZM179.495 40.6537L186.088 34.0612V23.0737C186.088 18.1293 185.319 16.4812 182.792 16.4812C180.265 16.4812 179.495 18.1293 179.495 23.0737V40.6537Z" fill="#00F4CA"/>
</svg>
