<svg width="62" height="62" viewBox="0 0 62 62" fill="none" xmlns="http://www.w3.org/2000/svg">
<path d="M29.8685 8.43724C29.98 8.23472 30.1438 8.06584 30.3428 7.94822C30.5418 7.8306 30.7688 7.76855 31 7.76855C31.2311 7.76855 31.4581 7.8306 31.6571 7.94822C31.8562 8.06584 32.02 8.23472 32.1315 8.43724L39.7575 22.9142C39.9393 23.2495 40.1931 23.5403 40.5007 23.7658C40.8083 23.9913 41.162 24.1459 41.5364 24.2185C41.9107 24.2911 42.2966 24.2799 42.6661 24.1857C43.0357 24.0915 43.3798 23.9167 43.6738 23.6737L54.7227 14.2084C54.9348 14.0359 55.1962 13.9351 55.4692 13.9206C55.7422 13.9061 56.0128 13.9786 56.242 14.1277C56.4712 14.2767 56.6471 14.4947 56.7446 14.7501C56.842 15.0055 56.8559 15.2853 56.7842 15.5492L49.4631 42.018C49.3136 42.5596 48.9917 43.0378 48.546 43.38C48.1003 43.7221 47.5552 43.9097 46.9934 43.9142H15.0091C14.4468 43.9102 13.9012 43.723 13.455 43.3807C13.0088 43.0385 12.6864 42.5601 12.5369 42.018L5.21829 15.5517C5.1466 15.2879 5.16048 15.0081 5.25792 14.7527C5.35536 14.4972 5.53134 14.2793 5.76053 14.1302C5.98972 13.9812 6.2603 13.9087 6.53331 13.9232C6.80632 13.9377 7.06769 14.0385 7.27979 14.211L18.3261 23.6763C18.6201 23.9193 18.9642 24.0941 19.3338 24.1883C19.7034 24.2825 20.0892 24.2937 20.4636 24.221C20.838 24.1484 21.1917 23.9938 21.4992 23.7683C21.8068 23.5428 22.0606 23.252 22.2425 22.9168L29.8685 8.43724Z" stroke="white" stroke-width="5.16667" stroke-linecap="round" stroke-linejoin="round"/>
<path d="M12.9167 54.25H49.0834" stroke="white" stroke-width="5.16667" stroke-linecap="round" stroke-linejoin="round"/>
</svg>
