<svg width="50" height="50" viewBox="0 0 50 50" fill="none" xmlns="http://www.w3.org/2000/svg">
<g opacity="0.980946">
<path d="M13 18.7998H10C8.67392 18.7998 7.40215 18.273 6.46447 17.3353C5.52678 16.3977 5 15.1259 5 13.7998C5 12.4737 5.52678 11.202 6.46447 10.2643C7.40215 9.32659 8.67392 8.7998 10 8.7998H13" stroke="#00F4CA" stroke-width="4" stroke-linecap="round" stroke-linejoin="round"/>
<path d="M37 18.7998H40C41.3261 18.7998 42.5979 18.273 43.5355 17.3353C44.4732 16.3977 45 15.1259 45 13.7998C45 12.4737 44.4732 11.202 43.5355 10.2643C42.5979 9.32659 41.3261 8.7998 40 8.7998H37" stroke="#00F4CA" stroke-width="4" stroke-linecap="round" stroke-linejoin="round"/>
<path d="M9 44.7998H41" stroke="#00F4CA" stroke-width="4" stroke-linecap="round" stroke-linejoin="round"/>
<path d="M21 30.1196V34.7996C21 35.8996 20.06 36.7596 19.06 37.2196C16.7 38.2996 15 41.2796 15 44.7996" stroke="#00F4CA" stroke-width="4" stroke-linecap="round" stroke-linejoin="round"/>
<path d="M29 30.1196V34.7996C29 35.8996 29.94 36.7596 30.94 37.2196C33.3 38.2996 35 41.2796 35 44.7996" stroke="#00F4CA" stroke-width="4" stroke-linecap="round" stroke-linejoin="round"/>
<path d="M37 4.7998H13V18.7998C13 21.9824 14.2643 25.0346 16.5147 27.2851C18.7652 29.5355 21.8174 30.7998 25 30.7998C28.1826 30.7998 31.2348 29.5355 33.4853 27.2851C35.7357 25.0346 37 21.9824 37 18.7998V4.7998Z" stroke="#00F4CA" stroke-width="4" stroke-linecap="round" stroke-linejoin="round"/>
</g>
</svg>
